<svg xmlns="http://www.w3.org/2000/svg" width="24" height="24" fill="none" viewBox="0 0 24 24"><g clip-path="url(#XzHLcclip0_1199_68)"><path fill="currentColor" fill-rule="evenodd" d="M23.38 10.38C20.7 7.434 16.344 4.434 12 4.5 7.656 4.435 3.301 7.435.624 10.38l-.002.003a2.413 2.413 0 000 3.23l.002.002c2.617 2.882 6.96 5.951 11.376 5.883 4.417.068 8.76-3 11.38-5.883l.002-.002a2.413 2.413 0 000-3.23l-.003-.003zM1.501 11.998c0-.225.083-.442.234-.61 2.562-2.82 6.539-5.45 10.252-5.387h.025c3.713-.063 7.69 2.567 10.255 5.387a.913.913 0 010 1.22c-2.51 2.763-6.476 5.454-10.255 5.39H11.987c-3.778.064-7.743-2.627-10.251-5.39a.913.913 0 01-.234-.61zM12 8.999a3 3 0 013 3 3 3 0 11-3-3zm1.722-1.158A4.499 4.499 0 0012 7.5L16.5 12a4.499 4.499 0 00-2.778-4.159zM9.5 8.257A4.5 4.5 0 0112 7.5L16.5 12a4.5 4.5 0 11-7-3.743z" clip-rule="evenodd"></path></g><defs><clipPath id="XzHLcclip0_1199_68"><path fill="currentColor" d="M0 0h24v24H0z"></path></clipPath></defs></svg>
    