<svg xmlns="http://www.w3.org/2000/svg" width="24" height="24" fill="none" viewBox="0 0 24 24"><g clip-path="url(#ftGqQclip0_963_181)"><path fill="currentColor" fill-rule="evenodd" d="M1.5 12c0 5.799 4.701 10.5 10.5 10.5S22.5 17.799 22.5 12 17.799 1.5 12 1.5 1.5 6.201 1.5 12zM12 24C5.373 24 0 18.627 0 12S5.373 0 12 0s12 5.373 12 12-5.373 12-12 12zm0-5.25a.75.75 0 00.75-.75v-7.5a.75.75 0 00-1.5 0V18c0 .414.336.75.75.75zM12 8a1 1 0 110-2 1 1 0 010 2z" clip-rule="evenodd"></path></g><defs><clipPath id="ftGqQclip0_963_181"><path fill="currentColor" d="M0 0h24v24H0z"></path></clipPath></defs></svg>