<svg xmlns="http://www.w3.org/2000/svg" width="24" height="24" fill="none" viewBox="0 0 24 24"><g clip-path="url(#eUianclip0_1199_122)"><path fill="currentColor" fill-rule="evenodd" d="M1.72 1.72a.75.75 0 01.53-.22h19.5a.75.75 0 01.75.75v15a.75.75 0 01-.75.75h-10.5a.75.75 0 00-.45.15L6 21.75v-3a.75.75 0 00-.75-.75h-3a.75.75 0 01-.75-.75v-15a.75.75 0 01.22-.53zM2.25 0A2.25 2.25 0 000 2.25v15a2.25 2.25 0 002.25 2.25H4.5v3.75a.75.75 0 001.2.6l5.8-4.35h10.25A2.25 2.25 0 0024 17.25v-15A2.25 2.25 0 0021.75 0H2.25zm5.377 5.25a2.985 2.985 0 00-2.68 1.67.75.75 0 101.347.66 1.485 1.485 0 012.666 0 .75.75 0 101.346-.66 2.985 2.985 0 00-2.679-1.67zm7.416.452A2.985 2.985 0 0119.3 6.919a.75.75 0 01-1.346.662 1.485 1.485 0 00-2.666 0 .75.75 0 01-1.346-.662c.246-.5.627-.922 1.101-1.217zm-6.286 6.494a.75.75 0 10-1.01 1.108 6.497 6.497 0 008.754 0 .75.75 0 10-1.01-1.108 4.997 4.997 0 01-6.734 0z" clip-rule="evenodd"></path></g><defs><clipPath id="eUianclip0_1199_122"><path fill="currentColor" d="M0 0h24v24H0z"></path></clipPath></defs></svg>
    