<svg xmlns="http://www.w3.org/2000/svg" width="24" height="24" fill="none" viewBox="0 0 32 32"><path fill="currentColor" fill-rule="evenodd" d="M1.75 16C1.75 8.13 8.13 1.75 16 1.75S30.25 8.13 30.25 16 23.87 30.25 16 30.25 1.75 23.87 1.75 16zM16 .25C7.302.25.25 7.302.25 16S7.302 31.75 16 31.75 31.75 24.698 31.75 16 24.698.25 16 .25zm0 9a.75.75 0 01.75.75v5.25H22a.75.75 0 010 1.5h-5.25V22a.75.75 0 01-1.5 0v-5.25H10a.75.75 0 010-1.5h5.25V10a.75.75 0 01.75-.75z" clip-rule="evenodd"></path></svg>
    