<svg xmlns="http://www.w3.org/2000/svg" width="24" height="24" fill="none" viewBox="0 0 32 32"><path fill="currentColor" fill-rule="evenodd" d="M1.75 16C1.75 8.13 8.13 1.75 16 1.75S30.25 8.13 30.25 16c0 4.337-1.937 8.22-4.993 10.834a13.746 13.746 0 00-18.514 0A14.218 14.218 0 011.75 16zm6.205 11.764A14.184 14.184 0 0016 30.25c2.985 0 5.756-.918 8.045-2.486a12.245 12.245 0 00-16.09 0zm17.72.665A15.682 15.682 0 0116 31.75C7.302 31.75.25 24.698.25 16S7.302.25 16 .25 31.75 7.302 31.75 16c0 5.048-2.375 9.542-6.069 12.424l-.007.005zM9.75 13c0-.815.156-1.594.44-2.308a12.364 12.364 0 008.143 3.058l-8.143-3.058 8.144 3.058c1.333 0 2.655-.214 3.915-.634A6.25 6.25 0 019.75 13zm8.584-.75c1.282 0 2.553-.226 3.755-.667A6.252 6.252 0 0010.932 9.34a10.864 10.864 0 007.401 2.909zM8.25 13a7.714 7.714 0 011.086-3.959A7.75 7.75 0 118.25 13z" clip-rule="evenodd"></path></svg>
