<svg xmlns="http://www.w3.org/2000/svg" width="32" height="32" fill="none" viewBox="0 0 32 32"><path fill="currentColor" fill-rule="evenodd" d="M2.653 17.516C.204 11.755 2.89 5.1 8.65 2.652c5.76-2.449 12.416.237 14.864 5.998 1.85 4.355.768 9.221-2.36 12.395a.77.77 0 00-.11.109 11.304 11.304 0 01-3.528 2.36c-5.76 2.448-12.416-.237-14.864-5.998zm18.962 5.16a12.822 12.822 0 01-3.511 2.218c-6.524 2.773-14.06-.268-16.832-6.791-2.772-6.524.269-14.06 6.792-16.832 6.523-2.772 14.06.269 16.831 6.792 2.004 4.715.971 9.96-2.22 13.551l8.855 8.856a.75.75 0 01-1.06 1.06l-8.854-8.855z" clip-rule="evenodd"></path></svg>
