<svg xmlns="http://www.w3.org/2000/svg" width="24" height="24" fill="none" viewBox="0 0 32 32"><path fill="currentColor" fill-rule="evenodd" d="M16 .25a.75.75 0 01.75.75v2.277a10.682 10.682 0 016.856 3.172 10.991 10.991 0 013.144 7.71c0 4.725.496 7.437.966 8.942.234.75.46 1.193.609 1.433a1.775 1.775 0 00.166.232l.005.004.002.003a.75.75 0 01-.498 1.31H4a.75.75 0 01-.6-1.2l.006-.009a4.172 4.172 0 00.234-.414c.167-.335.401-.886.64-1.706.477-1.641.97-4.363.97-8.595 0-2.89 1.13-5.663 3.144-7.71a10.682 10.682 0 016.856-3.172V1A.75.75 0 0116 .25zm0 4.5c-2.45 0-4.8.988-6.537 2.752a9.491 9.491 0 00-2.713 6.657c0 4.347-.507 7.213-1.03 9.013-.167.575-.335 1.04-.49 1.411h21.436a9.987 9.987 0 01-.382-1.034c-.53-1.697-1.034-4.572-1.034-9.39 0-2.5-.977-4.894-2.713-6.657A9.172 9.172 0 0016 4.75zm-2.878 23.53a.75.75 0 01.93.509 2.033 2.033 0 003.901 0 .75.75 0 111.44.422 3.532 3.532 0 01-6.78 0 .75.75 0 01.509-.93z" clip-rule="evenodd"></path></svg>
